<svg xmlns="http://www.w3.org/2000/svg" width="76.375" height="24">
  <path stroke="#323232" stroke-linecap="round" stroke-miterlimit="2" d="M5.744 11.904L2.352 6.4h2.864l1.872 3.184.432 1.104.416-1.104L9.888 6.4h2.576l-3.52 5.392L12.64 17.6H9.808l-2.144-3.408-.48-1.152-.464 1.152L4.576 17.6H2l3.744-5.696m7.471.096c0-.917.117-1.739.352-2.464.235-.725.573-1.336 1.016-1.832a4.344 4.344 0 0 1 1.624-1.136c.64-.261 1.365-.392 2.176-.392.864 0 1.619.141 2.264.424.645.283 1.184.68 1.616 1.192.432.512.757 1.125.976 1.84.219.715.328 1.504.328 2.368 0 .917-.12 1.739-.36 2.464-.24.725-.584 1.336-1.032 1.832a4.416 4.416 0 0 1-1.632 1.136c-.64.261-1.36.392-2.16.392-.864 0-1.619-.141-2.264-.424a4.377 4.377 0 0 1-1.616-1.192 5.055 5.055 0 0 1-.968-1.84c-.213-.715-.32-1.504-.32-2.368m2.512 0c0 .555.053 1.061.16 1.52.107.459.267.853.48 1.184.213.33.488.587.824.768.336.181.733.272 1.192.272.843 0 1.499-.288 1.968-.864.47-.576.704-1.536.704-2.88 0-.533-.048-1.03-.144-1.488a3.465 3.465 0 0 0-.472-1.192 2.339 2.339 0 0 0-.832-.784c-.336-.187-.744-.28-1.224-.28-.832 0-1.483.299-1.952.896-.47.597-.704 1.547-.704 2.848m17.742 5.12c-.352.245-.816.424-1.392.536a9.284 9.284 0 0 1-1.776.168c-.715 0-1.4-.107-2.056-.32a4.656 4.656 0 0 1-1.744-1.024c-.507-.47-.91-1.072-1.208-1.808-.299-.736-.448-1.627-.448-2.672 0-1.088.17-2.003.512-2.744.341-.741.779-1.339 1.312-1.792a5.027 5.027 0 0 1 1.776-.984 6.433 6.433 0 0 1 1.92-.304c.693 0 1.277.043 1.752.128.475.085.867.187 1.176.304l-.464 1.984a3.67 3.67 0 0 0-.936-.256 9.426 9.426 0 0 0-1.352-.08c-.48 0-.915.077-1.304.232-.39.155-.723.387-1 .696-.277.31-.493.699-.648 1.168-.155.47-.232 1.019-.232 1.648 0 .555.07 1.061.208 1.52.139.459.347.853.624 1.184.277.33.63.587 1.056.768.427.181.923.272 1.488.272.523 0 .963-.048 1.32-.144.357-.096.675-.219.952-.368l.464 1.888m9.343-8.64H39.26v9.12h-2.368V8.48h-3.553V6.4h9.473v2.08m8.35 2.944L51.291 10h-.08l-.816 1.44-4.593 6.16h-1.76V6.4h2.368v6.032l-.16 1.488h.096l.865-1.488L51.755 6.4h1.776v11.2h-2.368v-6.176m11.295 1.552h-4.48V17.6H55.61V6.4h2.368v4.496h4.48V6.4h2.368v11.2h-2.368v-4.624M73.977 8.48h-4.704v9.12h-2.368V6.4h7.072v2.08z"/>
</svg>
